<?xml version="1.0" encoding="UTF-8" standalone="no"?><!DOCTYPE svg PUBLIC "-//W3C//DTD SVG 1.1//EN" "http://www.w3.org/Graphics/SVG/1.1/DTD/svg11.dtd"><svg width="100%" height="100%" viewBox="0 0 3200 3200" version="1.1" xmlns="http://www.w3.org/2000/svg" xmlns:xlink="http://www.w3.org/1999/xlink" xml:space="preserve" xmlns:serif="http://www.serif.com/" style="fill-rule:evenodd;clip-rule:evenodd;stroke-linejoin:round;stroke-miterlimit:2;"><path id="path372" d="M1000,300c-186.3,0 -342.889,127.503 -387.305,300l-312.695,0c-55.2,0 -100,44.8 -100,100c0,55.2 44.8,100 100,100l312.695,0c44.416,172.497 201.005,300 387.305,300c186.3,0 342.889,-127.503 387.305,-300l1512.69,0c55.2,0 100,-44.8 100,-100c0,-55.2 -44.8,-100 -100,-100l-1512.69,0c-44.416,-172.497 -201.005,-300 -387.305,-300Zm0,200c110.4,0 200,89.6 200,200c0,110.4 -89.6,200 -200,200c-110.4,0 -200,-89.6 -200,-200c0,-110.4 89.6,-200 200,-200Zm1200,700c-186.3,0 -342.889,127.503 -387.305,300l-1512.69,0c-55.2,0 -100,44.8 -100,100c0,55.2 44.8,100 100,100l1512.69,0c44.416,172.497 201.005,300 387.305,300c186.3,0 342.889,-127.503 387.305,-300l312.695,0c55.2,0 100,-44.8 100,-100c0,-55.2 -44.8,-100 -100,-100l-312.695,0c-44.416,-172.497 -201.005,-300 -387.305,-300Zm0,200c110.4,0 200,89.6 200,200c0,110.4 -89.6,200 -200,200c-110.4,0 -200,-89.6 -200,-200c0,-110.4 89.6,-200 200,-200Zm-1200,700c-186.3,0 -342.889,127.503 -387.305,300l-312.695,0c-55.2,0 -100,44.8 -100,100c0,55.2 44.8,100 100,100l312.695,0c44.416,172.497 201.005,300 387.305,300c186.3,0 342.889,-127.503 387.305,-300l1512.69,0c55.2,0 100,-44.8 100,-100c0,-55.2 -44.8,-100 -100,-100l-1512.69,0c-44.416,-172.497 -201.005,-300 -387.305,-300Zm0,200c110.4,0 200,89.6 200,200c0,110.4 -89.6,200 -200,200c-110.4,0 -200,-89.6 -200,-200c0,-110.4 89.6,-200 200,-200Z"/></svg>