<?xml version="1.0" encoding="UTF-8"?>
<svg id="Layer_1" data-name="Layer 1" xmlns="http://www.w3.org/2000/svg" viewBox="0 0 3262.43 3404">
  <defs>
    <style>
      .cls-1 {
        fill: #231f20;
      }
    </style>
  </defs>
  <path class="cls-1" d="M378.55,3404c-34.66,0-68.59-13.5-94.65-39.27-40.57-40.12-51.64-99.65-28.21-151.68l201.16-446.47c.62-1.39.33-3-.74-4.11C165.79,2460.98,3.84,2064.54.07,1646.19c-1.98-220.22,39.57-434.49,123.5-636.89,80.98-195.28,197.7-371.06,346.92-522.45,149.15-151.31,323.12-270.49,517.07-354.23C1188.61,45.82,1402.15,1.21,1622.24.03c222.26-1.26,437.77,41.5,640.87,126.91,196.03,82.44,371.92,200.89,522.78,352.07,150.84,151.17,268.92,327.29,350.93,523.48,84.99,203.29,127.23,419.03,125.56,641.24-1.63,216.94-46.61,428.28-133.71,628.16-83.85,192.45-202.78,365.66-353.46,514.82-150.68,149.16-325.09,266.33-518.39,348.26-199.57,84.58-410.09,127.46-625.7,127.47-1.27,0-2.51,0-3.78,0-206.45-.49-407.73-39.13-598.24-114.86-23.42-9.32-49.78-8.66-72.3,1.8l-520.9,241.85c-18.52,8.59-38.05,12.78-57.35,12.78ZM1622.82,108.36l.58,108.33c-377.56,2.04-732.21,152-998.62,422.26-266.55,270.41-411.47,627.43-408.07,1005.29,3.27,362.75,143.71,706.5,395.45,967.93,62.86,65.27,79.43,160.81,42.22,243.41l-111.27,246.97,322.44-149.71c76.29-35.42,165.07-37.84,243.58-6.62,165.1,65.63,339.61,99.12,518.71,99.53,1.02,0,2.12,0,3.15,0,761.51,0,1409-642.06,1414.72-1403.67,2.86-381.44-143.88-740.15-413.2-1010.05-267.47-268.04-622.79-415.38-1001.25-415.38-2.63,0-5.23,0-7.86.02l-.58-108.33Z"/>
  <circle class="cls-1" cx="1688.67" cy="968.81" r="239.65"/>
  <path class="cls-1" d="M1275.03,1329.92h503.79c77.46,0,135.65,70.7,120.76,146.71l-159.65,814.92c-14.97,76.4,59.08,140.49,132.26,113.92,39.63-14.39,79.85-31.78,112.27-51.77,9.87-6.09,21.51-9.04,33.03-7.64,16.08,1.95,33.23,11.87,25.73,47.51-13.13,62.37-154.74,220.81-433.34,200.25-283.89-20.94-306.19-171.6-315.15-226.52-9.54-58.41,89.9-583.99,134.77-802.23,10.25-49.87-25.64-97.4-76.42-101.23l-78.05-5.89s-17.05,0-35.4-16.58c-29.58-26.73-30.28-74.18.85-99.08,9.09-7.27,20.48-12.37,34.55-12.37Z"/>
</svg>