<?xml version="1.0" encoding="UTF-8"?>
<svg id="Ebene_1" data-name="Ebene 1" xmlns="http://www.w3.org/2000/svg" viewBox="0 0 3000 3000">
  <defs>
    <style>
      .cls-1 {
        fill: #5df;
      }

      .cls-2 {
        fill: #0cf;
      }

      .cls-3 {
        fill: #aef;
      }

      .cls-4 {
        fill: #fff;
      }
    </style>
  </defs>
  <rect class="cls-4" width="3000" height="3000"/>
  <path class="cls-3" d="M927.41,1460.12l-572.59,330.59s-190.86,110.2,0,220.39c190.86,110.19,954.32,550.98,954.32,550.98,0,0,190.86,110.19,381.73,0,190.87-110.19,954.33-550.98,954.33-550.98,0,0,190.87-110.2,0-220.39-190.86-110.2-954.33-550.98-954.33-550.98,0,0-190.86-110.2-381.73,0-190.87,110.19-381.73,220.39-381.73,220.39h0ZM927.41,1460.12"/>
  <path class="cls-1" d="M927.41,1072.11l-572.59,330.59s-190.86,110.2,0,220.39c190.86,110.2,954.32,550.98,954.32,550.98,0,0,190.86,110.2,381.73,0,190.87-110.2,954.33-550.98,954.33-550.98,0,0,190.87-110.19,0-220.39-190.86-110.2-954.33-550.98-954.33-550.98,0,0-190.86-110.2-381.73,0-190.87,110.19-381.73,220.39-381.73,220.39h0ZM927.41,1072.11"/>
  <path class="cls-2" d="M927.41,658.31l-572.59,330.58s-190.86,110.2,0,220.4c190.86,110.2,954.32,550.98,954.32,550.98,0,0,190.86,110.2,381.73,0,190.87-110.2,954.33-550.98,954.33-550.98,0,0,190.87-110.2,0-220.4-190.86-110.2-954.33-550.98-954.33-550.98,0,0-190.86-110.19-381.73,0-190.87,110.2-381.73,220.39-381.73,220.39h0ZM927.41,658.31"/>
</svg>